<svg width="470" height="366" viewBox="0 0 470 366" fill="none" xmlns="http://www.w3.org/2000/svg">
<circle cx="356.496" cy="69.0919" r="10.0139" fill="black"/>
<path d="M244.702 263L152.03 355.672C149.511 358.191 151.295 362.5 154.859 362.5H300.764C301.825 362.5 302.842 362.079 303.592 361.328L419.413 245.507C420.164 244.757 420.585 243.74 420.585 242.679V91.117C420.585 88.9079 422.376 87.117 424.585 87.117H462.95C465.414 87.117 467.306 84.8924 466.652 82.5161C459.91 58.019 433.898 51.0161 418.859 49.2939C417.443 49.1318 416.075 49.7811 415.255 50.9465L398.748 74.4036C397.999 75.4682 396.778 76.1017 395.477 76.1017H377.188C375.573 76.1017 374.139 77.0879 373.283 78.4572C370.681 82.6211 365.123 88.1184 356.496 88.1184C343.478 88.1184 337.469 76.1017 337.469 69.0919C337.469 62.0822 342.476 50.0655 356.496 50.0655C366.1 50.0655 371.005 55.9405 373.474 61.4016C374.183 62.9705 375.682 64.085 377.404 64.085H387.382C388.73 64.085 389.987 63.4063 390.727 62.2796L409.915 33.0397C410.343 32.3877 410.585 31.6259 410.524 30.8485C409.658 19.7747 396.487 3 345.481 3C292.607 3 280.056 35.7122 280.39 52.0682L280.39 172C280.39 180.5 279.5 187 271.5 187C263.5 187 262.365 180 262.365 172L262.365 145.882C262.365 144.804 261.93 143.772 261.158 143.019L181.416 65.2218C180.669 64.4929 179.666 64.085 178.623 64.085H10.0314C6.41633 64.085 4.65584 68.5 7.279 70.9874L56.9234 118.064C57.6665 118.769 58.6517 119.162 59.6758 119.162H158.661C159.665 119.162 160.633 119.539 161.372 120.22L177.837 135.394C179.124 136.58 181.037 136.782 182.691 136.21C185.003 135.41 188.322 134.693 192 135C198 135.5 208 141.5 208 152.5C208 169 189.5 176 178.5 167C172.188 161.836 171.487 154.508 172.218 150.102C172.498 148.412 172.169 146.561 170.933 145.375L159.381 134.294C158.636 133.58 157.644 133.181 156.612 133.181H71.3042C67.8047 133.181 65.9924 137.357 68.3828 139.913L117.797 192.748C118.553 193.557 119.611 194.016 120.718 194.016H181.348C182.409 194.016 183.426 194.437 184.176 195.187L205.317 216.328C206.067 217.079 207.085 217.5 208.146 217.5H249.966C251.76 217.5 253.309 216.287 254.121 214.688C256.293 210.407 261.123 205 269.5 205C282.5 205 288 215.5 288 223C288 230.5 283 241 269.5 241C261.585 241 257.305 237.735 255.32 234.795C254.269 233.237 252.661 231.882 250.782 231.882H204.253C203.192 231.882 202.174 231.461 201.424 230.711L179.172 208.458C178.422 207.708 177.404 207.287 176.344 207.287H130.099C126.578 207.287 124.775 211.507 127.208 214.052L176.065 265.131C176.82 265.92 177.864 266.366 178.956 266.366H215.645C216.706 266.366 217.724 265.945 218.474 265.195L232 251.668C235.5 248.5 240.967 247.934 244.702 251.668C248.437 255.403 248 259.5 244.702 263Z" stroke="black" stroke-width="6"/>
<circle cx="190" cy="153" r="8" fill="black"/>
<circle cx="270" cy="223" r="8" fill="black"/>
</svg>
